<svg xmlns="http://www.w3.org/2000/svg" xmlns:xlink="http://www.w3.org/1999/xlink" viewBox="0 0 154.5 154.5" height="154.5" width="154.5" data-background-color="#ffffff" preserveAspectRatio="xMidYMid meet" id="tight-bounds"><g><svg/></g><g><svg viewBox="0 0 154.5 154.5" height="154.5" width="154.5"><g transform="matrix(1,0,0,1,60.540825,43.83165)"><svg viewBox="0 0 33.41835 66.8367" height="66.8367" width="33.41835"><g><svg viewBox="0 0 33.41835 66.8367" height="66.8367" width="33.41835"><g><svg viewBox="0 0 33.41835 66.8367" height="66.8367" width="33.41835"><g id="textblocktransform"><svg viewBox="0 0 33.41835 66.8367" height="66.8367" width="33.41835" id="textblock"><g><svg viewBox="0 0 33.41835 66.8367" height="66.8367" width="33.41835"><g transform="matrix(1,0,0,1,0,0)"><svg width="33.41835" viewBox="2.1500000953674316 -35 17.5 35" height="66.8367" data-palette-color="#000000"><path d="M8.75 0L2.15 0 2.15-25.55 8.75-25.55 8.75 0ZM2.15-28.25L2.15-35 8.75-35 8.75-28.25 2.15-28.25ZM19.65 0L13.05 0 13.05-25.55 19.65-25.55 19.65 0ZM13.05-28.25L13.05-35 19.65-35 19.65-28.25 13.05-28.25Z" opacity="1" transform="matrix(1,0,0,1,0,0)" fill="#000000" class="wordmark-text-0" data-fill-palette-color="primary" id="text-0"/></svg></g></svg></g></svg></g></svg></g><g/></svg></g></svg></g><g><path xmlns="http://www.w3.org/2000/svg" d="M0 154.5v-154.5h154.5v154.5zM148.473 148.473v-142.446h-142.446v142.446z" fill="#000000" fill-rule="nonzero" stroke="none" stroke-width="1" stroke-linecap="butt" stroke-linejoin="miter" stroke-miterlimit="10" stroke-dasharray="" stroke-dashoffset="0" font-family="none" font-weight="none" font-size="none" text-anchor="none" style="mix-blend-mode: normal" data-fill-palette-color="tertiary"/></g></svg></g><defs/></svg>